<svg width="238" height="57" viewBox="0 0 238 57" fill="none" xmlns="http://www.w3.org/2000/svg">
<rect width="238" height="57" fill="#F5F5F5"/>
<g id="&#208;&#155;&#208;&#181;&#208;&#189;&#208;&#180;&#209;&#150;&#208;&#189;&#208;&#179;" clip-path="url(#clip0_0_1)">
<rect width="1920" height="6413" transform="translate(-80 -75)" fill="#E4E4E4"/>
<g id="&#208;&#158;&#209;&#128;&#208;&#189;&#208;&#176;&#208;&#188;&#208;&#181;&#208;&#189;&#209;&#130;">
<g id="Group 5560" opacity="0.7">
<path id="Union" fill-rule="evenodd" clip-rule="evenodd" d="M-98.4404 54.6301L-98.4404 7.8541L-26.1503 7.8541C-38.1987 -13.4077 -55.0664 -68.6884 -26.1503 -119.717L39.7613 -119.717C24.878 -104.833 -1.48661 -58.4827 12.1209 7.8541C20.6257 -31.1259 42.3127 -111.212 61.0231 -119.717L109.925 -119.717C90.7896 -95.62 53.3688 -40.6228 56.7707 -13.4077C80.1587 -48.8441 129.911 -119.717 141.818 -119.717L205.603 -119.717C165.206 -82.8629 83.9858 -5.75347 82.2848 7.85409C130.478 -33.2521 228.141 -116.315 233.244 -119.717L233.244 -53.8051L131.187 7.85409C179.38 19.1937 270.664 9.55503 250.253 -119.717L311.913 -119.717C316.874 -89.2415 313.614 -21.062 260.885 7.85409C293.486 12.8152 352.735 -5.75348 328.922 -119.717L382.074 -119.717C391.288 -89.2415 396.532 -19.361 343.803 16.3588L403.336 103.532L343.803 109.911L307.658 56.7562C299.155 56.7562 291.502 67.3871 328.922 109.911L335.299 116.289L275.766 122.668C263.008 106.367 238.769 71.2142 243.873 61.0086L160.952 56.7562C172.291 73.0569 209.003 109.06 265.135 122.668L188.592 137.551C163.078 122.668 109.923 85.6723 101.419 56.7562C95.0402 65.261 100.994 94.6022 175.835 143.93L109.925 154.561C92.2065 141.803 54.2176 104.383 44.0119 56.7562C31.2548 69.5133 22.7501 106.934 90.7879 154.561L44.0119 165.191C30.5456 154.561 0.636503 117.565 -11.2687 54.6301L-98.4404 54.6301ZM-58.1403 128.386C-46.8007 133.347 -24.5467 135.19 -26.2476 102.872C-28.3738 62.4746 -85.7815 98.6197 -58.1403 128.386Z" fill="#DEDEDE"/>
</g>
</g>
<g id="&#208;&#146;&#208;&#181;&#209;&#128;&#209;&#133;&#208;&#189;&#209;&#148; &#208;&#188;&#208;&#181;&#208;&#189;&#209;&#142;">
<rect id="Rectangle 23" x="-80" y="-75" width="1920" height="194" fill="white"/>
<g id="Group 53046">
<g id="&#208;&#155;&#208;&#190;&#208;&#179;&#208;&#190;&#209;&#130;&#208;&#184;&#208;&#191;">
<g clip-path="url(#clip1_0_1)">
<g id="&#208;&#155;&#208;&#190;&#208;&#179;&#208;&#190;&#209;&#130;&#208;&#184;&#208;&#191;_2">
<g id="Group 1">
<path id="Union_2" fill-rule="evenodd" clip-rule="evenodd" d="M238 46.8261H230.391V25.8261L216.391 46.8261H213.044L212.739 18.8261L210.304 17H219.13L228.565 10H230.087L225.217 17L217.913 19.1304V38.913L231.913 17H235.261V44.6957L238 46.8261ZM3.34783 20.6522L0 16.6957H28.6087V44.3913L32.2609 46.8261H23.7391V20.6522H11.2609V44.3913L14.6087 46.8261H6.3913V20.6522H3.34783ZM37.1305 20.6522L32.8696 17H46.2609C59.0435 18.8261 59.3479 26.7391 57.2174 31.913C55.5131 36.0522 49.2029 38.7101 46.2609 39.5217L44.1305 37.3913C48.5131 36.4174 51.029 32.7246 51.7392 31C54.6609 22.2348 46.4638 20.0435 42 20.0435V45L44.7392 46.8261H37.1305V20.6522ZM99.2174 46.8261H91.9131L95.2609 19.4348L91 17H101.348L109.565 37.6956L118.087 17H123.565L125.087 44.0869L128.435 46.8261H120.826L119.304 23.3913L109.565 46.8261H108.652L98.3044 23.3913L96.174 44.0869L99.2174 46.8261ZM131.783 18.8261L129.348 17H145.174L148.826 25.5217H147.609L143.043 19.7391H136.652V30.0869H143.348V32.8261H136.652V43.7826H143.348L148.217 38.3043H149.435L146.087 46.8261H131.783V18.8261ZM188.087 17L190.522 18.8261V46.8261H204.826L208.174 38.3043H206.956L202.087 43.7826H195.391V32.8261H202.087V30.0869H195.391V19.7391H201.783L206.348 25.5217H207.565L203.913 17H188.087ZM151.565 20.6522H154.609V46.8261H161.913L159.174 44.6956V20.6522H167.087V46.8261H171.348V20.6522H178.348V46.8261H185.652L182.913 44.6956V17H149.13L151.565 20.6522Z" fill="#1E1E1E"/>
<path id="Vector 8" d="M84.6086 20.0435C96.2956 33.9218 85.0144 43.6812 77.913 46.8261C80.9565 39.5218 83.3913 27.6522 73.0434 28.8696C64.7652 29.8435 67.971 41.2464 70.6086 46.8261C51.4347 37.6957 63.3043 20.9566 66.3478 17.6087C68.7826 14.9305 69.5942 12.029 69.6956 10.9131C75.0521 13.1044 76.1884 18.5218 76.0869 20.9566C77.5478 21.2 78.5217 17.4058 78.826 15.4783C82.9652 17.4261 83.1884 21.5653 82.7826 23.3913C84 23.3913 84.5072 21.1595 84.6086 20.0435Z" fill="#FF0000"/>
</g>
</g>
</g>
</g>
</g>
</g>
</g>
<defs>
<clipPath id="clip0_0_1">
<rect width="1920" height="6413" fill="white" transform="translate(-80 -75)"/>
</clipPath>
<clipPath id="clip1_0_1">
<rect width="238" height="57" rx="10" fill="white"/>
</clipPath>
</defs>
</svg>
