<svg width="46" height="46" viewBox="0 0 46 46" fill="none" xmlns="http://www.w3.org/2000/svg">
<g id="mdi:pen">
<path id="Vector" d="M39.6942 13.4933C39.0425 14.145 38.41 14.7775 38.3908 15.41C38.3333 16.0233 38.985 16.6558 39.5983 17.25C40.5183 18.2083 41.4192 19.0708 41.3808 20.01C41.3425 20.9492 40.365 21.9267 39.3875 22.885L31.4717 30.82L28.75 28.0983L36.8958 19.9717L35.0558 18.1317L32.3342 20.8342L25.1467 13.6467L32.5067 6.30583C33.2542 5.55833 34.5 5.55833 35.2092 6.30583L39.6942 10.7908C40.4417 11.5 40.4417 12.7458 39.6942 13.4933ZM5.75 33.0625L24.0733 14.72L31.2608 21.9075L12.9375 40.25H5.75V33.0625Z" fill="white"/>
</g>
</svg>
