<svg xmlns="http://www.w3.org/2000/svg" aria-hidden="true" style="position:absolute;width:0;height:0;overflow:hidden">
  <defs>
		<symbol id="icon-header-search" viewBox="0 0 32 32">
      <path stroke-linecap="round" stroke-linejoin="round" stroke-width="2.4" d="M13.785 26.053c6.729 0 12.185-5.455 12.185-12.184S20.515 1.684 13.785 1.684 1.6 7.139 1.6 13.869c0 6.729 5.455 12.184 12.185 12.184zM30.4 30.484l-7.754-7.754"/>
    </symbol>
    <symbol id="icon-check" viewBox="0 0 33 32">
      <path d="M.866 0h32v32h-32V0z"/>
    </symbol>
    <symbol id="icon-footer-mobal-pen" viewBox="0 0 32 32">
      <path d="M27.613 9.387c-.453.453-.893.893-.907 1.333-.04.427.413.867.84 1.28.64.667 1.267 1.267 1.24 1.92s-.707 1.333-1.387 2l-5.507 5.52-1.893-1.893 5.667-5.653-1.28-1.28-1.893 1.88-5-5 5.12-5.107c.52-.52 1.387-.52 1.88 0l3.12 3.12c.52.493.52 1.36 0 1.88zM4 23l12.747-12.76 5 5L9 28H4v-5z"/>
    </symbol>
    <symbol id="icon-footer-scroll-up" viewBox="0 0 31 32">
      <path d="m15.851 5.558-2.378 2.421.569.579 1.4-1.44v18.988h.817V7.118l1.4 1.44.569-.579-2.378-2.421z"/>
      <path stroke-width=".674" d="M.337 16.337v-.674C.337 7.199 7.199.337 15.663.337s15.326 6.862 15.326 15.326v.674c0 8.465-6.862 15.326-15.326 15.326S.337 24.801.337 16.337z"/>
    </symbol>
    <symbol id="icon-hot" viewBox="0 0 30 32">
      <path stroke-linecap="round" stroke-linejoin="round" stroke-width="3.048" d="M27.834 18.07c0 8.271-6.203 12.406-12.406 12.406S3.022 26.341 3.022 18.07c0-6.203 3.101-9.304 5.169-10.338 0 3.101 1.034 5.169 2.068 6.203 6.203-2.068 7.237-8.271 7.237-12.406C21.631 4.63 27.834 9.8 27.834 18.07z"/>
    </symbol>
    <symbol id="icon-shopp" viewBox="0 0 32 32">
      <path d="M.3.114h31.586V31.7H.3V.114z"/>
    </symbol>
    <symbol id="icon-vector-right" viewBox="0 0 63 32">
      <path d="m50.113 16.302-4.339-4.262-1.038 1.02 2.582 2.51H13.284v1.464h34.034l-2.582 2.51 1.038 1.02 4.339-4.262z"/>
      <path stroke-width="1.208" d="M16 .604h30.792C55.295.604 62.188 7.497 62.188 16s-6.893 15.396-15.396 15.396H16C7.497 31.396.604 24.503.604 16S7.497.604 16 .604z"/>
    </symbol>
    <symbol id="icon-watch" viewBox="0 0 33 32">
      <path d="M.866 0h32v32h-32V0z"/>
    </symbol>
  </defs>
</svg>
