<svg xmlns="http://www.w3.org/2000/svg" aria-hidden="true" style="position:absolute;width:0;height:0;overflow:hidden">
  <defs>
    <symbol id="icon-book" viewBox="0 0 33 32">
      <path d="M.866 0h32v32h-32V0z"/>
    </symbol>
    <symbol id="icon-check" viewBox="0 0 33 32">
      <path d="M.866 0h32v32h-32V0z"/>
    </symbol>
    <symbol id="icon-facebook" viewBox="0 0 32 32">
      <path d="M28.856 15.894A12.667 12.667 0 0 0 7.235 6.938a12.668 12.668 0 0 0 1.92 19.487 12.661 12.661 0 0 0 7.036 2.134 12.68 12.68 0 0 0 12.665-12.665zm-11.92 11.15v-8.419h3.228a.744.744 0 1 0 0-1.49h-3.228v-3.228a2.249 2.249 0 0 1 2.235-2.235h1.987a.748.748 0 0 0 .745-.745.744.744 0 0 0-.745-.745h-1.987c-.987.003-1.933.397-2.63 1.095s-1.091 1.643-1.095 2.63v3.228h-3.228a.744.744 0 1 0 0 1.49h3.228v8.419A11.173 11.173 0 0 1 5.022 15.521a11.177 11.177 0 0 1 18.938-7.66 11.175 11.175 0 0 1-7.024 19.183z"/>
    </symbol>
    <symbol id="icon-footer-mobal-pen" viewBox="0 0 32 32">
      <path d="M27.613 9.387c-.453.453-.893.893-.907 1.333-.04.427.413.867.84 1.28.64.667 1.267 1.267 1.24 1.92s-.707 1.333-1.387 2l-5.507 5.52-1.893-1.893 5.667-5.653-1.28-1.28-1.893 1.88-5-5 5.12-5.107c.52-.52 1.387-.52 1.88 0l3.12 3.12c.52.493.52 1.36 0 1.88zM4 23l12.747-12.76 5 5L9 28H4v-5z"/>
    </symbol>
    <symbol id="icon-footer-scroll-up" viewBox="0 0 31 32">
      <path d="m15.851 5.558-2.378 2.421.569.579 1.4-1.44v18.988h.817V7.118l1.4 1.44.569-.579-2.378-2.421z"/>
      <path stroke-width=".674" d="M.337 16.337v-.674C.337 7.199 7.199.337 15.663.337s15.326 6.862 15.326 15.326v.674c0 8.465-6.862 15.326-15.326 15.326S.337 24.801.337 16.337z"/>
    </symbol>
    <symbol id="icon-header-book" viewBox="0 0 32 32">
      <path d="M0 0h32v32H0V0z"/>
    </symbol>
    <symbol id="icon-header-inst" viewBox="0 0 32 32">
      <path stroke-linecap="round" stroke-linejoin="round" stroke-width="2.182" d="M24.499 8.23a.608.608 0 1 1 0-1.216M24.499 8.23a.608.608 0 1 0 0-1.216"/>
      <path stroke-linecap="round" stroke-linejoin="round" stroke-width="2.182" d="M1.455 7.713a6.258 6.258 0 0 1 6.258-6.258h16.688a6.258 6.258 0 0 1 6.258 6.258v16.688a6.258 6.258 0 0 1-6.258 6.258H7.713a6.258 6.258 0 0 1-6.258-6.258V7.713z"/>
      <path stroke-linecap="round" stroke-linejoin="round" stroke-width="2.182" d="M9.854 16.056a6.19 6.19 0 0 0 1.816 4.385 6.194 6.194 0 0 0 4.385 1.816 6.19 6.19 0 0 0 4.385-1.816 6.194 6.194 0 0 0 1.816-4.385 6.204 6.204 0 0 0-10.587-4.385 6.203 6.203 0 0 0-1.817 4.385z"/>
    </symbol>
    <symbol id="icon-header-message" viewBox="0 0 33 32">
      <path stroke-linecap="round" stroke-linejoin="round" stroke-width="1.454" d="M13.995 16.645 7.8 7.978l24.261 3.826-19.097 15.444 1.031-10.603zM13.995 16.646l7.226-1.936"/>
    </symbol>
    <symbol id="icon-header-search" viewBox="0 0 32 32">
      <path stroke-linecap="round" stroke-linejoin="round" stroke-width="2.4" d="M13.785 26.053c6.729 0 12.185-5.455 12.185-12.184S20.515 1.684 13.785 1.684 1.6 7.139 1.6 13.869c0 6.729 5.455 12.184 12.185 12.184zM30.4 30.484l-7.754-7.754"/>
    </symbol>
    <symbol id="icon-header-shopp" viewBox="0 0 32 32">
      <path d="M0 0h32v32H0V0z"/>
    </symbol>
    <symbol id="icon-header-upload" viewBox="0 0 31 32">
      <path stroke-linecap="round" stroke-linejoin="round" stroke-width="2.182" d="M7.636 30.857H3.272c-.579 0-1.134-.241-1.543-.669s-.639-1.01-.639-1.616V10.286h28.364v18.286c0 .606-.23 1.188-.639 1.616s-.964.669-1.543.669h-4.364"/>
      <path stroke-linecap="round" stroke-linejoin="round" stroke-width="2.182" d="m9.818 22.857 5.455-5.714 5.455 5.714M15.273 17.143v13.714M24.633 2.286c-.186-.339-.453-.622-.774-.822s-.685-.311-1.059-.321H7.745c-.373.01-.738.121-1.059.321s-.587.483-.774.822l-4.822 8h28.364l-4.822-8zM15.273 1.143v9.143"/>
    </symbol>
    <symbol id="icon-header-user" viewBox="0 0 32 32">
      <path d="M0 0h32v32H0V0z"/>
      <path d="M-898.783-136.348h2671.304v8922.435H-898.783V-136.348z"/>
      <path d="m-216.157-13.662-5.889-21.977c34.922 5.3 93.39-25.896 118.259-42.157l-7.869 24.355c-22.624 9.988-66.699 30.435-62.006 32.318 4.691 1.883 35.125 4.111 49.756 4.989 38.837-97.3 164.689-95.165 222.761-81.935l-2.874 47.881c-63.337-17.577-123.94-9.975-146.324-3.977l.469 40.447 71.126-12.525 2.951 84.271-73.572-28.183.387 33.403c15.909 12.488 97.145 27.188 135.774 32.977l-3.441 50.65C-99.401 117.325-131.765 39.191-125.104 3.817c-4.884 1.309-33.468-2.81-43.324-5.404-7.885-2.075-6.105 1.636-4.23 3.751 8.6.837 33.252 26.423 44.504 39.112l3.622 33.054c-41.834-66.262-78.515-86.27-91.626-87.991zm166.781 43.029 69.78-14.816-70.279-28.209.499 43.025zm73.577 28.66 64.28 29.887.847-40.795-65.127 10.907zm-1.475-42.135 65.948 28.786.193-43.237-66.14 14.451zm-1.475-42.135L90.087 1.115l1.414-43.564-70.25 16.206zm-84.733 84.216-1.426-103c-12.667 6.448-38.695 25.549-41.466 50.37s27.44 45.429 42.892 52.63zm-9.131-68.227c-2.559-6.294-9.756-14.922-18.075.917-10.399 19.799.374 40.468 5.585 40.38.373-.006.771.007 1.189.022 5.413.186 13.997.482 11.301-41.319z"/>
      <path d="M-987.826-158.609h2914.783v292.174H-987.826v-292.174z"/>
      <path d="M0 0h32v32H0V0z"/>
    </symbol>
    <symbol id="icon-hot" viewBox="0 0 30 32">
      <path stroke-linecap="round" stroke-linejoin="round" stroke-width="3.048" d="M27.834 18.07c0 8.271-6.203 12.406-12.406 12.406S3.022 26.341 3.022 18.07c0-6.203 3.101-9.304 5.169-10.338 0 3.101 1.034 5.169 2.068 6.203 6.203-2.068 7.237-8.271 7.237-12.406C21.631 4.63 27.834 9.8 27.834 18.07z"/>
    </symbol>
    <symbol id="icon-inst" viewBox="0 0 32 32">
      <path d="M15.893 10.43a5.468 5.468 0 0 0-5.358 6.53 5.463 5.463 0 1 0 5.359-6.529zm0 9.933a4.47 4.47 0 1 1-.002-8.937 4.47 4.47 0 0 1 .003 8.936zm5.464-16.39H10.43a6.458 6.458 0 0 0-6.457 6.457v10.927a6.464 6.464 0 0 0 1.891 4.566 6.456 6.456 0 0 0 4.566 1.891h10.927a6.464 6.464 0 0 0 4.566-1.891 6.458 6.458 0 0 0 1.891-4.566V10.43a6.464 6.464 0 0 0-1.891-4.566 6.458 6.458 0 0 0-4.566-1.891zm5.463 17.384a5.464 5.464 0 0 1-5.463 5.463H10.43a5.464 5.464 0 0 1-5.463-5.463V10.43a5.464 5.464 0 0 1 5.463-5.463h10.927a5.464 5.464 0 0 1 5.463 5.463v10.927zm-3.477-11.92a.992.992 0 1 1-1.985.002.992.992 0 0 1 1.985-.002z"/>
    </symbol>
    <symbol id="icon-logo" viewBox="0 0 134 32">
      <path fill="#1e1e1e" d="M133.614 26.288h-4.272V14.499l-7.86 11.789h-1.879l-.171-15.719-1.367-1.025h4.955l5.297-3.93h.854l-2.734 3.93-4.1 1.196v11.106l7.86-12.302h1.88v15.548l1.538 1.196zM1.879 11.594 0 9.373h16.061v15.548l2.05 1.367h-4.784V11.594H6.322v13.327l1.879 1.367H3.588V11.594H1.879zm18.966 0-2.392-2.05h7.518c7.176 1.025 7.347 5.468 6.151 8.372-.957 2.324-4.499 3.816-6.151 4.272l-1.196-1.196c2.46-.547 3.873-2.62 4.272-3.588 1.64-4.921-2.962-6.151-5.468-6.151v14.011l1.538 1.025h-4.272V11.595zm34.856 14.694H51.6l1.879-15.378-2.392-1.367h5.809l4.613 11.619 4.784-11.619h3.075l.854 15.207 1.88 1.538H67.83l-.854-13.156-5.468 13.156h-.513l-5.809-13.156-1.196 11.619 1.709 1.538zm18.282-15.719-1.367-1.025h8.885l2.05 4.784h-.683l-2.563-3.246h-3.588v5.809h3.759v1.538h-3.759v6.151h3.759l2.733-3.076h.684l-1.88 4.784h-8.03V10.569zm31.61-1.025 1.367 1.025v15.719h8.03l1.88-4.784h-.684l-2.733 3.076h-3.759v-6.151h3.759v-1.538h-3.759v-5.809h3.588l2.563 3.246h.683l-2.05-4.784h-8.885zm-20.504 2.05h1.709v14.694h4.1l-1.538-1.196V11.594h4.442v14.694h2.392V11.594h3.93v14.694h4.1l-1.538-1.196V9.544H83.72l1.367 2.05z" style="fill:var(--color1, #1e1e1e)"/>
      <path fill="red" d="M47.5 11.252c6.561 7.791.228 13.27-3.759 15.036 1.709-4.101 3.076-10.764-2.734-10.081-4.647.547-2.848 6.948-1.367 10.081-10.764-5.126-4.101-14.523-2.392-16.403 1.367-1.504 1.823-3.132 1.879-3.759 3.007 1.23 3.645 4.272 3.588 5.638.82.137 1.367-1.993 1.538-3.076 2.324 1.094 2.449 3.417 2.221 4.442.683 0 .968-1.253 1.025-1.879z" style="fill:var(--color2, #f00)"/>
    </symbol>
    <symbol id="icon-logo-mini" viewBox="0 0 27 32">
      <path d="M22.133 8.136c10.479 12.366.364 21.062-6.003 23.865 2.729-6.509 4.912-17.085-4.366-16-7.422.868-4.548 11.028-2.183 16C-7.611 23.865 3.032 8.95 5.761 5.967 7.944 3.581 8.672.995 8.763.001c4.803 1.953 5.822 6.78 5.731 8.949 1.31.217 2.183-3.164 2.456-4.881 3.711 1.736 3.911 5.424 3.547 7.051 1.092 0 1.546-1.989 1.637-2.983z"/>
    </symbol>
    <symbol id="icon-shopp" viewBox="0 0 32 32">
      <path d="M.3.114h31.586V31.7H.3V.114z"/>
    </symbol>
    <symbol id="icon-telegram" viewBox="0 0 32 32">
      <path stroke-linecap="round" stroke-linejoin="round" stroke-width="1.004" d="M27.265 5.616c.755 0 1.324.662 1.02 1.894L24.59 24.927c-.258 1.238-1.007 1.536-2.04.96l-8.814-6.51a.266.266 0 0 1 0-.43l10.178-9.192c.464-.411-.099-.609-.709-.238l-12.774 8.059a.3.3 0 0 1-.265.033l-5.424-1.715c-1.205-.351-1.205-1.179.271-1.768l21.701-8.371c.172-.083.359-.13.55-.139z"/>
    </symbol>
    <symbol id="icon-vector-right" viewBox="0 0 63 32">
      <path d="m50.113 16.302-4.339-4.262-1.038 1.02 2.582 2.51H13.284v1.464h34.034l-2.582 2.51 1.038 1.02 4.339-4.262z"/>
      <path stroke-width="1.208" d="M16 .604h30.792C55.295.604 62.188 7.497 62.188 16s-6.893 15.396-15.396 15.396H16C7.497 31.396.604 24.503.604 16S7.497.604 16 .604z"/>
    </symbol>
    <symbol id="icon-watch" viewBox="0 0 33 32">
      <path d="M.866 0h32v32h-32V0z"/>
    </symbol>
  </defs>
</svg>
