<svg width="88" height="87" viewBox="0 0 88 87" fill="none" xmlns="http://www.w3.org/2000/svg">
<g id="ph:facebook-logo-light">
<path id="Vector" d="M78.4514 43.211C78.4514 36.4008 76.4319 29.7435 72.6483 24.081C68.8648 18.4185 63.4871 14.0051 57.1952 11.3989C50.9034 8.79275 43.98 8.11086 37.3007 9.43947C30.6213 10.7681 24.4859 14.0475 19.6703 18.8631C14.8548 23.6786 11.5753 29.814 10.2467 36.4934C8.91811 43.1728 9.6 50.0961 12.2062 56.388C14.8123 62.6798 19.2257 68.0575 24.8882 71.8411C30.5507 75.6247 37.208 77.6441 44.0182 77.6441C53.1477 77.6352 61.9007 74.0046 68.3563 67.549C74.8118 61.0935 78.4424 52.3405 78.4514 43.211ZM46.0437 73.5257V50.6377H54.8208C55.358 50.6377 55.8732 50.4243 56.253 50.0445C56.6329 49.6646 56.8463 49.1495 56.8463 48.6123C56.8463 48.0751 56.6329 47.5599 56.253 47.18C55.8732 46.8002 55.358 46.5868 54.8208 46.5868H46.0437V37.8097C46.0526 36.2009 46.6956 34.6605 47.8333 33.5228C48.9709 32.3852 50.5113 31.7421 52.1202 31.7333H57.5214C58.0586 31.7333 58.5738 31.5199 58.9537 31.14C59.3335 30.7602 59.5469 30.245 59.5469 29.7078C59.5469 29.1706 59.3335 28.6554 58.9537 28.2756C58.5738 27.8957 58.0586 27.6823 57.5214 27.6823H52.1202C49.4369 27.6912 46.8662 28.7611 44.9688 30.6584C43.0715 32.5557 42.0017 35.1265 41.9928 37.8097V46.5868H33.2157C32.6785 46.5868 32.1633 46.8002 31.7835 47.18C31.4036 47.5599 31.1902 48.0751 31.1902 48.6123C31.1902 49.1495 31.4036 49.6646 31.7835 50.0445C32.1633 50.4243 32.6785 50.6377 33.2157 50.6377H41.9928V73.5257C34.1279 73.0002 26.7751 69.4386 21.4872 63.5931C16.1992 57.7476 13.3901 50.0758 13.653 42.1978C13.9159 34.3197 17.2302 26.8523 22.8961 21.3723C28.562 15.8923 36.1358 12.8289 44.0182 12.8289C51.9006 12.8289 59.4745 15.8923 65.1404 21.3723C70.8063 26.8523 74.1206 34.3197 74.3835 42.1978C74.6464 50.0758 71.8373 57.7476 66.5493 63.5931C61.2614 69.4386 53.9086 73.0002 46.0437 73.5257Z" fill="#A4A4A4"/>
</g>
</svg>
