<svg width="87" height="87" viewBox="0 0 87 87" fill="none" xmlns="http://www.w3.org/2000/svg">
<g id="ph:instagram-logo-thin">
<path id="Vector" d="M43.2101 28.3571C40.2724 28.3571 37.4006 29.2283 34.958 30.8604C32.5153 32.4925 30.6115 34.8123 29.4873 37.5264C28.3631 40.2406 28.0689 43.2271 28.642 46.1084C29.2152 48.9897 30.6298 51.6364 32.7071 53.7137C34.7844 55.791 37.4311 57.2056 40.3124 57.7787C43.1937 58.3519 46.1802 58.0577 48.8943 56.9335C51.6085 55.8093 53.9283 53.9054 55.5604 51.4628C57.1925 49.0202 58.0637 46.1484 58.0637 43.2106C58.0637 39.2712 56.4987 35.4932 53.7132 32.7076C50.9276 29.922 47.1495 28.3571 43.2101 28.3571ZM43.2101 55.3635C40.8065 55.3635 38.4569 54.6508 36.4584 53.3154C34.4598 51.98 32.9022 50.082 31.9824 47.8613C31.0625 45.6407 30.8219 43.1972 31.2908 40.8397C31.7597 38.4823 32.9172 36.3169 34.6168 34.6173C36.3164 32.9176 38.4818 31.7602 40.8392 31.2913C43.1967 30.8224 45.6402 31.063 47.8608 31.9828C50.0815 32.9027 51.9795 34.4603 53.3149 36.4589C54.6503 38.4574 55.363 40.807 55.363 43.2106C55.363 46.4338 54.0826 49.5249 51.8035 51.804C49.5244 54.0831 46.4333 55.3635 43.2101 55.3635ZM58.0637 10.803H28.3566C23.701 10.803 19.236 12.6524 15.944 15.9445C12.6519 19.2365 10.8025 23.7015 10.8025 28.3571V58.0641C10.8025 60.3694 11.2565 62.6521 12.1387 64.7818C13.0209 66.9116 14.3139 68.8467 15.944 70.4768C19.236 73.7688 23.701 75.6183 28.3566 75.6183H58.0637C60.3689 75.6183 62.6516 75.1642 64.7813 74.2821C66.9111 73.3999 68.8463 72.1069 70.4763 70.4768C72.1064 68.8467 73.3994 66.9116 74.2816 64.7818C75.1638 62.6521 75.6178 60.3694 75.6178 58.0641V28.3571C75.6178 26.0519 75.1638 23.7692 74.2816 21.6394C73.3994 19.5097 72.1064 17.5745 70.4763 15.9445C68.8463 14.3144 66.9111 13.0214 64.7813 12.1392C62.6516 11.257 60.3689 10.803 58.0637 10.803ZM72.9172 58.0641C72.9172 62.0035 71.3522 65.7816 68.5667 68.5672C65.7811 71.3527 62.0031 72.9177 58.0637 72.9177H28.3566C24.4172 72.9177 20.6392 71.3527 17.8536 68.5672C15.068 65.7816 13.5031 62.0035 13.5031 58.0641V28.3571C13.5031 24.4177 15.068 20.6397 17.8536 17.8541C20.6392 15.0685 24.4172 13.5036 28.3566 13.5036H58.0637C62.0031 13.5036 65.7811 15.0685 68.5667 17.8541C71.3522 20.6397 72.9172 24.4177 72.9172 28.3571V58.0641ZM63.4649 25.6565C63.4649 26.1906 63.3065 26.7128 63.0098 27.1569C62.713 27.601 62.2913 27.9471 61.7978 28.1516C61.3043 28.356 60.7613 28.4094 60.2374 28.3052C59.7136 28.201 59.2323 27.9438 58.8547 27.5661C58.477 27.1884 58.2198 26.7072 58.1155 26.1834C58.0113 25.6595 58.0648 25.1165 58.2692 24.623C58.4736 24.1295 58.8198 23.7077 59.2639 23.411C59.708 23.1142 60.2302 22.9558 60.7643 22.9558C61.4805 22.9558 62.1675 23.2404 62.6739 23.7468C63.1804 24.2533 63.4649 24.9402 63.4649 25.6565Z" fill="#A4A4A4"/>
</g>
</svg>
