<svg width="88" height="87" viewBox="0 0 88 87" fill="none" xmlns="http://www.w3.org/2000/svg">
<g id="arcticons:telegram">
<path id="Vector" d="M74.1273 15.2681C76.1797 15.2681 77.7281 17.0685 76.8999 20.4173L66.8535 67.7685C66.1514 71.1353 64.1169 71.9455 61.3082 70.3791L37.3446 52.6809C37.2516 52.6142 37.1759 52.5264 37.1237 52.4246C37.0715 52.3229 37.0442 52.2101 37.0442 52.0958C37.0442 51.9814 37.0715 51.8687 37.1237 51.7669C37.1759 51.6652 37.2516 51.5773 37.3446 51.5106L65.0171 26.5207C66.2774 25.4045 64.747 24.8643 63.0906 25.8726L28.3604 47.7838C28.2551 47.8524 28.1355 47.8963 28.0107 47.9119C27.886 47.9274 27.7593 47.9144 27.6403 47.8738L12.8948 43.2107C9.61801 42.2564 9.61801 40.0059 13.633 38.4035L72.6329 15.6462C73.1008 15.4217 73.6089 15.2931 74.1273 15.2681Z" stroke="#A4A4A4" stroke-width="2.72907" stroke-linecap="round" stroke-linejoin="round"/>
</g>
</svg>
