<svg width="96" height="23" viewBox="0 0 96 23" fill="none" xmlns="http://www.w3.org/2000/svg">
<g clip-path="url(#clip0_1_11185)">
<path fill-rule="evenodd" clip-rule="evenodd" d="M95.4827 18.6841H92.4468V10.3048L86.8606 18.6841H85.5247L85.4033 7.51171L84.4318 6.78308H87.9535L91.7181 3.98999H92.3253L90.3823 6.78308L87.4678 7.63315V15.5267L93.054 6.78308H94.3898V17.834L95.4827 18.6841ZM1.8534 8.24042L0.517578 6.66172H11.9328V17.7126L13.3901 18.6842H9.9898V8.24042H5.01081V17.7126L6.34664 18.6842H3.06779V8.24042H1.8534ZM15.3331 8.24038L13.633 6.78312H18.9763C24.0767 7.51175 24.1981 10.6692 23.3481 12.7336C22.668 14.3852 20.1502 15.4458 18.9763 15.7696L18.1262 14.9195C19.8749 14.5309 20.8788 13.0575 21.1622 12.3693C22.328 8.87187 19.0572 7.99751 17.2761 7.99751V17.9555L18.3691 18.6841H15.3331V8.24038ZM40.1066 18.6841H37.1921L38.5279 7.75463L36.8278 6.78312H40.9567L44.2355 15.041L47.6358 6.78312H49.8217L50.4289 17.5912L51.7647 18.6841H48.7288L48.1216 9.33333L44.2355 18.6841H43.8712L39.7423 9.33333L38.8922 17.5912L40.1066 18.6841ZM53.1006 7.51175L52.129 6.78312H58.4439L59.9011 10.1834H59.4154L57.5938 7.87607H55.0436V12.005H57.7152V13.0979H55.0436V17.4697H57.7152L59.6582 15.2838H60.144L58.8082 18.6841H53.1006V7.51175ZM75.5667 6.78312L76.5383 7.51175V18.6841H82.2459L83.5817 15.2838H83.0959L81.1529 17.4697H78.4813V13.0979H81.1529V12.005H78.4813V7.87607H81.0315L82.8531 10.1834H83.3388L81.8816 6.78312H75.5667ZM60.9941 8.24038H62.2085V18.6841H65.123L64.0301 17.834V8.24038H67.1875V18.6841H68.8876V8.24038H71.6807V18.6841H74.5952L73.5023 17.834V6.78312H60.0226L60.9941 8.24038Z" fill="white"/>
<path d="M34.2774 7.99741C38.9406 13.535 34.4393 17.4292 31.6057 18.684C32.8201 15.7695 33.7916 11.0334 29.6627 11.5191C26.3596 11.9077 27.6387 16.4576 28.6912 18.684C21.0406 15.0409 25.7767 8.36173 26.9911 7.0259C27.9626 5.95724 28.2864 4.79952 28.3269 4.35425C30.4642 5.22861 30.9176 7.39022 30.8771 8.36173C31.46 8.45888 31.8486 6.94494 31.9701 6.17583C33.6216 6.95304 33.7107 8.6046 33.5488 9.33324C34.0345 9.33324 34.2369 8.44269 34.2774 7.99741Z" fill="white"/>
</g>
<defs>
<clipPath id="clip0_1_11185">
<rect x="0.517578" width="94.9651" height="22.7437" rx="3.99013" fill="white"/>
</clipPath>
</defs>
</svg>
